<?xml version="1.0" standalone="no"?>
<!DOCTYPE svg PUBLIC "-//W3C//DTD SVG 20010904//EN"
 "http://www.w3.org/TR/2001/REC-SVG-20010904/DTD/svg10.dtd">
<svg version="1.0" xmlns="http://www.w3.org/2000/svg"
 width="700.000000pt" height="700.000000pt" viewBox="0 0 700.000000 700.000000"
 preserveAspectRatio="xMidYMid meet">
<metadata>
Created by potrace 1.11, written by Peter Selinger 2001-2013
</metadata>
<g transform="translate(0.000000,700.000000) scale(0.100000,-0.100000)"
fill="#000000" stroke="none">
<path d="M5335 6849 c-22 -16 -116 -107 -210 -202 -307 -313 -395 -411 -527
-592 -189 -260 -273 -396 -301 -491 -16 -55 -20 -179 -6 -226 8 -28 6 -27 -31
15 -47 53 -203 160 -319 217 -104 52 -293 115 -409 136 -116 21 -343 25 -462
8 -116 -17 -138 -26 -146 -60 -4 -15 -10 -21 -14 -15 -5 9 -378 -354 -486
-474 -29 -33 -230 -248 -254 -274 -9 -9 -52 -56 -95 -106 -44 -49 -87 -97 -95
-105 -29 -29 -381 -432 -476 -546 -66 -78 -196 -237 -229 -279 -16 -21 -35
-43 -41 -49 -8 -9 -111 -141 -360 -461 -13 -16 -51 -66 -86 -111 -35 -44 -72
-93 -83 -108 -11 -16 -41 -56 -66 -89 -232 -312 -356 -503 -404 -622 -17 -43
-61 -210 -69 -265 -15 -101 -20 -166 -20 -270 0 -100 4 -152 19 -245 20 -122
88 -323 162 -473 55 -111 173 -300 229 -365 16 -18 45 -53 65 -78 48 -58 188
-194 266 -258 234 -193 650 -384 888 -408 140 -14 387 -4 531 21 139 25 250
67 379 144 106 62 431 296 700 501 281 215 943 751 1050 849 17 15 80 70 140
122 61 52 150 130 200 175 49 44 95 85 101 90 377 337 896 848 923 908 22 47
26 504 6 602 -46 228 -221 579 -341 685 -39 34 -43 44 -12 35 11 -4 53 -7 92
-7 88 1 174 28 280 89 70 40 233 148 246 162 3 3 28 22 55 41 57 39 232 176
256 199 9 9 47 43 85 76 129 112 481 472 492 503 13 37 1 49 -73 82 -91 40
-99 44 -185 94 -70 41 -272 184 -290 205 -3 3 -36 33 -75 65 -97 82 -489 478
-577 584 -40 48 -75 89 -78 92 -3 3 -17 21 -30 40 -14 19 -32 43 -40 53 -42
49 -133 208 -166 292 -49 125 -57 132 -109 94z"/>
<path d="M5529 6819 c-10 -10 -19 -29 -19 -41 0 -50 60 -182 120 -263 16 -22
45 -63 65 -92 19 -29 41 -58 48 -65 7 -7 35 -40 62 -73 173 -208 466 -495 670
-656 210 -166 392 -249 450 -206 31 24 26 90 -14 168 -63 121 -195 302 -347
477 -99 113 -384 393 -488 480 -263 218 -488 330 -547 271z"/>
</g>
</svg>
