  0
SECTION
  2
HEADER
  9
$ACADVER
  1
AC1009
  9
$INSBASE
 10
0.0
 20
0.0
 30
0.0
  9
$EXTMIN
 10
-94.6991839071086332
 20
-79.3748805575580434
 30
0.0
  9
$EXTMAX
 10
43.6640677316272914
 20
27.2163140965706596
 30
0.0
  9
$LIMMIN
 10
0.0
 20
0.0
  9
$LIMMAX
 10
12.0
 20
9.0
  9
$ORTHOMODE
 70
     0
  9
$REGENMODE
 70
     1
  9
$FILLMODE
 70
     1
  9
$QTEXTMODE
 70
     0
  9
$MIRRTEXT
 70
     0
  9
$DRAGMODE
 70
     2
  9
$LTSCALE
 40
1.0
  9
$OSMODE
 70
  4095
  9
$ATTMODE
 70
     1
  9
$TEXTSIZE
 40
0.2
  9
$TRACEWID
 40
0.05
  9
$TEXTSTYLE
  7
STANDARD
  9
$CLAYER
  8
0
  9
$CELTYPE
  6
BYLAYER
  9
$CECOLOR
 62
   256
  9
$DIMSCALE
 40
1.0
  9
$DIMASZ
 40
0.18
  9
$DIMEXO
 40
0.0625
  9
$DIMDLI
 40
0.38
  9
$DIMRND
 40
0.0
  9
$DIMDLE
 40
0.0
  9
$DIMEXE
 40
0.18
  9
$DIMTP
 40
0.0
  9
$DIMTM
 40
0.0
  9
$DIMTXT
 40
0.18
  9
$DIMCEN
 40
0.09
  9
$DIMTSZ
 40
0.0
  9
$DIMTOL
 70
     0
  9
$DIMLIM
 70
     0
  9
$DIMTIH
 70
     1
  9
$DIMTOH
 70
     1
  9
$DIMSE1
 70
     0
  9
$DIMSE2
 70
     0
  9
$DIMTAD
 70
     0
  9
$DIMZIN
 70
     0
  9
$DIMBLK
  1

  9
$DIMASO
 70
     1
  9
$DIMSHO
 70
     1
  9
$DIMPOST
  1

  9
$DIMAPOST
  1

  9
$DIMALT
 70
     0
  9
$DIMALTD
 70
     2
  9
$DIMALTF
 40
25.3999999999999986
  9
$DIMLFAC
 40
1.0
  9
$DIMTOFL
 70
     0
  9
$DIMTVP
 40
0.0
  9
$DIMTIX
 70
     0
  9
$DIMSOXD
 70
     0
  9
$DIMSAH
 70
     0
  9
$DIMBLK1
  1

  9
$DIMBLK2
  1

  9
$DIMSTYLE
  2
STANDARD
  9
$DIMCLRD
 70
     0
  9
$DIMCLRE
 70
     0
  9
$DIMCLRT
 70
     0
  9
$DIMTFAC
 40
1.0
  9
$DIMGAP
 40
0.09
  9
$LUNITS
 70
     2
  9
$LUPREC
 70
     4
  9
$SKETCHINC
 40
0.1
  9
$FILLETRAD
 40
1.0
  9
$AUNITS
 70
     0
  9
$AUPREC
 70
     0
  9
$MENU
  1
.
  9
$ELEVATION
 40
0.0
  9
$PELEVATION
 40
0.0
  9
$THICKNESS
 40
0.0
  9
$LIMCHECK
 70
     0
  9
$BLIPMODE
 70
     0
  9
$CHAMFERA
 40
0.0
  9
$CHAMFERB
 40
0.0
  9
$SKPOLY
 70
     0
  9
$TDCREATE
 40
2458205.5973726850934327
  9
$TDUPDATE
 40
2458205.6061574080958962
  9
$TDINDWG
 40
0.0087962963
  9
$TDUSRTIMER
 40
0.0087962963
  9
$USRTIMER
 70
     1
  9
$ANGBASE
 50
0.0
  9
$ANGDIR
 70
     0
  9
$PDMODE
 70
     0
  9
$PDSIZE
 40
0.0
  9
$PLINEWID
 40
0.0
  9
$COORDS
 70
     1
  9
$SPLFRAME
 70
     0
  9
$SPLINETYPE
 70
     6
  9
$SPLINESEGS
 70
     8
  9
$ATTDIA
 70
     1
  9
$ATTREQ
 70
     1
  9
$HANDLING
 70
     1
  9
$HANDSEED
  5
382
  9
$SURFTAB1
 70
     6
  9
$SURFTAB2
 70
     6
  9
$SURFTYPE
 70
     6
  9
$SURFU
 70
     6
  9
$SURFV
 70
     6
  9
$UCSNAME
  2

  9
$UCSORG
 10
0.0
 20
0.0
 30
0.0
  9
$UCSXDIR
 10
1.0
 20
0.0
 30
0.0
  9
$UCSYDIR
 10
0.0
 20
1.0
 30
0.0
  9
$PUCSNAME
  2

  9
$PUCSORG
 10
0.0
 20
0.0
 30
0.0
  9
$PUCSXDIR
 10
1.0
 20
0.0
 30
0.0
  9
$PUCSYDIR
 10
0.0
 20
1.0
 30
0.0
  9
$USERI1
 70
     0
  9
$USERI2
 70
     0
  9
$USERI3
 70
     0
  9
$USERI4
 70
     0
  9
$USERI5
 70
     0
  9
$USERR1
 40
0.0
  9
$USERR2
 40
0.0
  9
$USERR3
 40
0.0
  9
$USERR4
 40
0.0
  9
$USERR5
 40
0.0
  9
$WORLDVIEW
 70
     1
  9
$SHADEDGE
 70
     3
  9
$SHADEDIF
 70
    70
  9
$TILEMODE
 70
     1
  9
$MAXACTVP
 70
    64
  9
$PLIMCHECK
 70
     0
  9
$PEXTMIN
 10
0.0
 20
0.0
 30
0.0
  9
$PEXTMAX
 10
0.0
 20
0.0
 30
0.0
  9
$PLIMMIN
 10
0.0
 20
0.0
  9
$PLIMMAX
 10
12.0
 20
9.0
  9
$UNITMODE
 70
     0
  9
$VISRETAIN
 70
     1
  9
$PLINEGEN
 70
     0
  9
$PSLTSCALE
 70
     1
  0
ENDSEC
  0
SECTION
  2
TABLES
  0
TABLE
  2
VPORT
 70
     1
  0
VPORT
  2
*ACTIVE
 70
     0
 10
0.0
 20
0.0
 11
1.0
 21
1.0
 12
2.8181157736038069
 22
-13.9822648420775995
 13
0.0
 23
0.0
 14
0.5
 24
0.5
 15
0.5
 25
0.5
 16
0.0
 26
0.0
 36
1.0
 17
0.0
 27
0.0
 37
0.0
 40
167.749125991143103
 41
2.1545454545454539
 42
50.0
 43
0.0
 44
0.0
 50
0.0
 51
0.0
 71
     0
 72
  1000
 73
     1
 74
     3
 75
     0
 76
     1
 77
     0
 78
     0
  0
ENDTAB
  0
TABLE
  2
LTYPE
 70
     3
  0
LTYPE
  2
CONTINUOUS
 70
     0
  3
Solid line
 72
    65
 73
     0
 40
0.0
  0
ENDTAB
  0
TABLE
  2
LAYER
 70
     1
  0
LAYER
  2
0
 70
     0
 62
     7
  6
CONTINUOUS
  0
ENDTAB
  0
TABLE
  2
STYLE
 70
     2
  0
STYLE
  2
STANDARD
 70
     0
 40
0.0
 41
1.0
 50
0.0
 71
     0
 42
0.2
  3
txt
  4

  0
STYLE
  2
ANNOTATIVE
 70
     0
 40
0.0
 41
1.0
 50
0.0
 71
     0
 42
0.2
  3
txt
  4

  0
ENDTAB
  0
TABLE
  2
VIEW
 70
     0
  0
ENDTAB
  0
TABLE
  2
UCS
 70
     0
  0
ENDTAB
  0
TABLE
  2
APPID
 70
     8
  0
APPID
  2
ACAD
 70
     0
  0
APPID
  2
ACADANNOPO
 70
     0
  0
APPID
  2
ACADANNOTATIVE
 70
     0
  0
APPID
  2
ACAD_DSTYLE_DIMJAG
 70
     0
  0
APPID
  2
ACAD_DSTYLE_DIMTALN
 70
     0
  0
APPID
  2
ACAD_MLEADERVER
 70
     0
  0
APPID
  2
ACAD_NAV_VCDISPLAY
 70
     0
  0
APPID
  2
ACAD_EXEMPT_FROM_CAD_STANDARDS
 70
     0
  0
ENDTAB
  0
TABLE
  2
DIMSTYLE
 70
     3
  0
DIMSTYLE
  2
STANDARD
 70
     0
  3

  4

  5

  6

  7

 40
1.0
 41
0.18
 42
0.0625
 43
0.38
 44
0.18
 45
0.0
 46
0.0
 47
0.0
 48
0.0
140
0.18
141
0.09
142
0.0
143
25.3999999999999986
144
1.0
145
0.0
146
1.0
147
0.09
 71
     0
 72
     0
 73
     1
 74
     1
 75
     0
 76
     0
 77
     0
 78
     0
170
     0
171
     2
172
     0
173
     0
174
     0
175
     0
176
     0
177
     0
178
     0
  0
DIMSTYLE
  2
ANNOTATIVE
 70
     0
  3

  4

  5

  6

  7

 40
0.0
 41
0.18
 42
0.0625
 43
0.38
 44
0.18
 45
0.0
 46
0.0
 47
0.0
 48
0.0
140
0.18
141
0.09
142
0.0
143
25.3999999999999986
144
1.0
145
0.0
146
1.0
147
0.09
 71
     0
 72
     0
 73
     1
 74
     1
 75
     0
 76
     0
 77
     0
 78
     0
170
     0
171
     2
172
     0
173
     0
174
     0
175
     0
176
     0
177
     0
178
     0
  0
ENDTAB
  0
ENDSEC
  0
SECTION
  2
BLOCKS
  0
BLOCK
  8
0
  2
$MODEL_SPACE
 70
     0
 10
0.0
 20
0.0
 30
0.0
  3
$MODEL_SPACE
  1

  0
ENDBLK
  5
21
  8
0
  0
BLOCK
 67
     1
  8
0
  2
$PAPER_SPACE
 70
     0
 10
0.0
 20
0.0
 30
0.0
  3
$PAPER_SPACE
  1

  0
ENDBLK
  5
5B
 67
     1
  8
0
  0
ENDSEC
  0
SECTION
  2
ENTITIES
  0
POLYLINE
  5
213
  8
0
 10
-6.2871461389594847
 20
-0.1369636604455877
 30
0.0
 66
     1
 70
     8
  0
VERTEX
  8
0
  5
27E
 10
-6.28715
 20
-0.136964
 30
0.000000
  70
    32
  0
VERTEX
  8
0
  5
27F
 10
-6.28002
 20
-0.197431
 30
0.000000
  70
    32
  0
VERTEX
  8
0
  5
280
 10
-6.25866
 20
-0.257752
 30
0.000000
  70
    32
  0
VERTEX
  8
0
  5
281
 10
-6.22312
 20
-0.317783
 30
0.000000
  70
    32
  0
VERTEX
  8
0
  5
282
 10
-6.17348
 20
-0.377378
 30
0.000000
  70
    32
  0
VERTEX
  8
0
  5
283
 10
-6.10987
 20
-0.436393
 30
0.000000
  70
    32
  0
VERTEX
  8
0
  5
284
 10
-6.03243
 20
-0.494688
 30
0.000000
  70
    32
  0
VERTEX
  8
0
  5
285
 10
-5.94136
 20
-0.552120
 30
0.000000
  70
    32
  0
VERTEX
  8
0
  5
286
 10
-5.83686
 20
-0.608552
 30
0.000000
  70
    32
  0
VERTEX
  8
0
  5
287
 10
-5.71920
 20
-0.663849
 30
0.000000
  70
    32
  0
VERTEX
  8
0
  5
288
 10
-5.58866
 20
-0.717876
 30
0.000000
  70
    32
  0
VERTEX
  8
0
  5
289
 10
-5.44555
 20
-0.770503
 30
0.000000
  70
    32
  0
VERTEX
  8
0
  5
28A
 10
-5.29022
 20
-0.821605
 30
0.000000
  70
    32
  0
VERTEX
  8
0
  5
28B
 10
-5.12304
 20
-0.871056
 30
0.000000
  70
    32
  0
VERTEX
  8
0
  5
28C
 10
-4.94441
 20
-0.918740
 30
0.000000
  70
    32
  0
VERTEX
  8
0
  5
28D
 10
-4.75477
 20
-0.964540
 30
0.000000
  70
    32
  0
VERTEX
  8
0
  5
28E
 10
-4.55457
 20
-1.00835
 30
0.000000
  70
    32
  0
VERTEX
  8
0
  5
28F
 10
-4.34429
 20
-1.05005
 30
0.000000
  70
    32
  0
VERTEX
  8
0
  5
290
 10
-4.12444
 20
-1.08956
 30
0.000000
  70
    32
  0
VERTEX
  8
0
  5
291
 10
-3.89555
 20
-1.12677
 30
0.000000
  70
    32
  0
VERTEX
  8
0
  5
292
 10
-3.65817
 20
-1.16160
 30
0.000000
  70
    32
  0
VERTEX
  8
0
  5
293
 10
-3.41287
 20
-1.19396
 30
0.000000
  70
    32
  0
VERTEX
  8
0
  5
294
 10
-3.16025
 20
-1.22377
 30
0.000000
  70
    32
  0
VERTEX
  8
0
  5
295
 10
-2.90091
 20
-1.25097
 30
0.000000
  70
    32
  0
VERTEX
  8
0
  5
296
 10
-2.63547
 20
-1.27548
 30
0.000000
  70
    32
  0
VERTEX
  8
0
  5
297
 10
-2.36458
 20
-1.29725
 30
0.000000
  70
    32
  0
VERTEX
  8
0
  5
298
 10
-2.08890
 20
-1.31622
 30
0.000000
  70
    32
  0
VERTEX
  8
0
  5
299
 10
-1.80907
 20
-1.33235
 30
0.000000
  70
    32
  0
VERTEX
  8
0
  5
29A
 10
-1.52578
 20
-1.34561
 30
0.000000
  70
    32
  0
VERTEX
  8
0
  5
29B
 10
-1.23971
 20
-1.35595
 30
0.000000
  70
    32
  0
VERTEX
  8
0
  5
29C
 10
-0.951556
 20
-1.36335
 30
0.000000
  70
    32
  0
VERTEX
  8
0
  5
29D
 10
-0.662000
 20
-1.36780
 30
0.000000
  70
    32
  0
VERTEX
  8
0
  5
29E
 10
-0.371745
 20
-1.36928
 30
0.000000
  70
    32
  0
VERTEX
  8
0
  5
29F
 10
-0.0814904
 20
-1.36780
 30
0.000000
  70
    32
  0
VERTEX
  8
0
  5
2A0
 10
0.208065
 20
-1.36335
 30
0.000000
  70
    32
  0
VERTEX
  8
0
  5
2A1
 10
0.496224
 20
-1.35595
 30
0.000000
  70
    32
  0
VERTEX
  8
0
  5
2A2
 10
0.782292
 20
-1.34561
 30
0.000000
  70
    32
  0
VERTEX
  8
0
  5
2A3
 10
1.06558
 20
-1.33235
 30
0.000000
  70
    32
  0
VERTEX
  8
0
  5
2A4
 10
1.34540
 20
-1.31622
 30
0.000000
  70
    32
  0
VERTEX
  8
0
  5
2A5
 10
1.62109
 20
-1.29725
 30
0.000000
  70
    32
  0
VERTEX
  8
0
  5
2A6
 10
1.89198
 20
-1.27548
 30
0.000000
  70
    32
  0
VERTEX
  8
0
  5
2A7
 10
2.15741
 20
-1.25097
 30
0.000000
  70
    32
  0
VERTEX
  8
0
  5
2A8
 10
2.41676
 20
-1.22377
 30
0.000000
  70
    32
  0
VERTEX
  8
0
  5
2A9
 10
2.66938
 20
-1.19396
 30
0.000000
  70
    32
  0
VERTEX
  8
0
  5
2AA
 10
2.91468
 20
-1.16160
 30
0.000000
  70
    32
  0
VERTEX
  8
0
  5
2AB
 10
3.15205
 20
-1.12677
 30
0.000000
  70
    32
  0
VERTEX
  8
0
  5
2AC
 10
3.38095
 20
-1.08956
 30
0.000000
  70
    32
  0
VERTEX
  8
0
  5
2AD
 10
3.60080
 20
-1.05005
 30
0.000000
  70
    32
  0
VERTEX
  8
0
  5
2AE
 10
3.81107
 20
-1.00835
 30
0.000000
  70
    32
  0
VERTEX
  8
0
  5
2AF
 10
4.01128
 20
-0.964540
 30
0.000000
  70
    32
  0
VERTEX
  8
0
  5
2B0
 10
4.20092
 20
-0.918740
 30
0.000000
  70
    32
  0
VERTEX
  8
0
  5
2B1
 10
4.37955
 20
-0.871056
 30
0.000000
  70
    32
  0
VERTEX
  8
0
  5
2B2
 10
4.54673
 20
-0.821605
 30
0.000000
  70
    32
  0
VERTEX
  8
0
  5
2B3
 10
4.70206
 20
-0.770503
 30
0.000000
  70
    32
  0
VERTEX
  8
0
  5
2B4
 10
4.84517
 20
-0.717876
 30
0.000000
  70
    32
  0
VERTEX
  8
0
  5
2B5
 10
4.97571
 20
-0.663849
 30
0.000000
  70
    32
  0
VERTEX
  8
0
  5
2B6
 10
5.09337
 20
-0.608552
 30
0.000000
  70
    32
  0
VERTEX
  8
0
  5
2B7
 10
5.19787
 20
-0.552120
 30
0.000000
  70
    32
  0
VERTEX
  8
0
  5
2B8
 10
5.28894
 20
-0.494688
 30
0.000000
  70
    32
  0
VERTEX
  8
0
  5
2B9
 10
5.36638
 20
-0.436393
 30
0.000000
  70
    32
  0
VERTEX
  8
0
  5
2BA
 10
5.42999
 20
-0.377378
 30
0.000000
  70
    32
  0
VERTEX
  8
0
  5
2BB
 10
5.47963
 20
-0.317783
 30
0.000000
  70
    32
  0
VERTEX
  8
0
  5
2BC
 10
5.51517
 20
-0.257752
 30
0.000000
  70
    32
  0
VERTEX
  8
0
  5
2BD
 10
5.53653
 20
-0.197431
 30
0.000000
  70
    32
  0
VERTEX
  8
0
  5
2BE
 10
5.54366
 20
-0.136964
 30
0.000000
  70
    32
  0
VERTEX
  8
0
  5
2BF
 10
5.53653
 20
-0.0764965
 30
0.000000
  70
    32
  0
VERTEX
  8
0
  5
2C0
 10
5.51517
 20
-0.0161751
 30
0.000000
  70
    32
  0
VERTEX
  8
0
  5
2C1
 10
5.47963
 20
0.0438554
 30
0.000000
  70
    32
  0
VERTEX
  8
0
  5
2C2
 10
5.42999
 20
0.103450
 30
0.000000
  70
    32
  0
VERTEX
  8
0
  5
2C3
 10
5.36638
 20
0.162466
 30
0.000000
  70
    32
  0
VERTEX
  8
0
  5
2C4
 10
5.28894
 20
0.220760
 30
0.000000
  70
    32
  0
VERTEX
  8
0
  5
2C5
 10
5.19787
 20
0.278193
 30
0.000000
  70
    32
  0
VERTEX
  8
0
  5
2C6
 10
5.09337
 20
0.334625
 30
0.000000
  70
    32
  0
VERTEX
  8
0
  5
2C7
 10
4.97571
 20
0.389921
 30
0.000000
  70
    32
  0
VERTEX
  8
0
  5
2C8
 10
4.84517
 20
0.443948
 30
0.000000
  70
    32
  0
VERTEX
  8
0
  5
2C9
 10
4.70206
 20
0.496576
 30
0.000000
  70
    32
  0
VERTEX
  8
0
  5
2CA
 10
4.54673
 20
0.547677
 30
0.000000
  70
    32
  0
VERTEX
  8
0
  5
2CB
 10
4.37955
 20
0.597129
 30
0.000000
  70
    32
  0
VERTEX
  8
0
  5
2CC
 10
4.20092
 20
0.644812
 30
0.000000
  70
    32
  0
VERTEX
  8
0
  5
2CD
 10
4.01128
 20
0.690613
 30
0.000000
  70
    32
  0
VERTEX
  8
0
  5
2CE
 10
3.81107
 20
0.734419
 30
0.000000
  70
    32
  0
VERTEX
  8
0
  5
2CF
 10
3.60080
 20
0.776126
 30
0.000000
  70
    32
  0
VERTEX
  8
0
  5
2D0
 10
3.38095
 20
0.815633
 30
0.000000
  70
    32
  0
VERTEX
  8
0
  5
2D1
 10
3.15205
 20
0.852846
 30
0.000000
  70
    32
  0
VERTEX
  8
0
  5
2D2
 10
2.91468
 20
0.887674
 30
0.000000
  70
    32
  0
VERTEX
  8
0
  5
2D3
 10
2.66938
 20
0.920033
 30
0.000000
  70
    32
  0
VERTEX
  8
0
  5
2D4
 10
2.41676
 20
0.949846
 30
0.000000
  70
    32
  0
VERTEX
  8
0
  5
2D5
 10
2.15741
 20
0.977041
 30
0.000000
  70
    32
  0
VERTEX
  8
0
  5
2D6
 10
1.89198
 20
1.00155
 30
0.000000
  70
    32
  0
VERTEX
  8
0
  5
2D7
 10
1.62109
 20
1.02332
 30
0.000000
  70
    32
  0
VERTEX
  8
0
  5
2D8
 10
1.34540
 20
1.04229
 30
0.000000
  70
    32
  0
VERTEX
  8
0
  5
2D9
 10
1.06558
 20
1.05843
 30
0.000000
  70
    32
  0
VERTEX
  8
0
  5
2DA
 10
0.782292
 20
1.07168
 30
0.000000
  70
    32
  0
VERTEX
  8
0
  5
2DB
 10
0.496224
 20
1.08202
 30
0.000000
  70
    32
  0
VERTEX
  8
0
  5
2DC
 10
0.208065
 20
1.08942
 30
0.000000
  70
    32
  0
VERTEX
  8
0
  5
2DD
 10
-0.0814904
 20
1.09387
 30
0.000000
  70
    32
  0
VERTEX
  8
0
  5
2DE
 10
-0.371745
 20
1.09536
 30
0.000000
  70
    32
  0
VERTEX
  8
0
  5
2DF
 10
-0.662000
 20
1.09387
 30
0.000000
  70
    32
  0
VERTEX
  8
0
  5
2E0
 10
-0.951556
 20
1.08942
 30
0.000000
  70
    32
  0
VERTEX
  8
0
  5
2E1
 10
-1.23971
 20
1.08202
 30
0.000000
  70
    32
  0
VERTEX
  8
0
  5
2E2
 10
-1.52578
 20
1.07168
 30
0.000000
  70
    32
  0
VERTEX
  8
0
  5
2E3
 10
-1.80907
 20
1.05843
 30
0.000000
  70
    32
  0
VERTEX
  8
0
  5
2E4
 10
-2.08890
 20
1.04229
 30
0.000000
  70
    32
  0
VERTEX
  8
0
  5
2E5
 10
-2.36458
 20
1.02332
 30
0.000000
  70
    32
  0
VERTEX
  8
0
  5
2E6
 10
-2.63547
 20
1.00155
 30
0.000000
  70
    32
  0
VERTEX
  8
0
  5
2E7
 10
-2.90091
 20
0.977041
 30
0.000000
  70
    32
  0
VERTEX
  8
0
  5
2E8
 10
-3.16025
 20
0.949846
 30
0.000000
  70
    32
  0
VERTEX
  8
0
  5
2E9
 10
-3.41287
 20
0.920033
 30
0.000000
  70
    32
  0
VERTEX
  8
0
  5
2EA
 10
-3.65817
 20
0.887674
 30
0.000000
  70
    32
  0
VERTEX
  8
0
  5
2EB
 10
-3.89555
 20
0.852846
 30
0.000000
  70
    32
  0
VERTEX
  8
0
  5
2EC
 10
-4.12444
 20
0.815633
 30
0.000000
  70
    32
  0
VERTEX
  8
0
  5
2ED
 10
-4.34429
 20
0.776126
 30
0.000000
  70
    32
  0
VERTEX
  8
0
  5
2EE
 10
-4.55457
 20
0.734419
 30
0.000000
  70
    32
  0
VERTEX
  8
0
  5
2EF
 10
-4.75477
 20
0.690613
 30
0.000000
  70
    32
  0
VERTEX
  8
0
  5
2F0
 10
-4.94441
 20
0.644812
 30
0.000000
  70
    32
  0
VERTEX
  8
0
  5
2F1
 10
-5.12304
 20
0.597129
 30
0.000000
  70
    32
  0
VERTEX
  8
0
  5
2F2
 10
-5.29022
 20
0.547677
 30
0.000000
  70
    32
  0
VERTEX
  8
0
  5
2F3
 10
-5.44555
 20
0.496576
 30
0.000000
  70
    32
  0
VERTEX
  8
0
  5
2F4
 10
-5.58866
 20
0.443948
 30
0.000000
  70
    32
  0
VERTEX
  8
0
  5
2F5
 10
-5.71920
 20
0.389921
 30
0.000000
  70
    32
  0
VERTEX
  8
0
  5
2F6
 10
-5.83686
 20
0.334625
 30
0.000000
  70
    32
  0
VERTEX
  8
0
  5
2F7
 10
-5.94136
 20
0.278193
 30
0.000000
  70
    32
  0
VERTEX
  8
0
  5
2F8
 10
-6.03243
 20
0.220760
 30
0.000000
  70
    32
  0
VERTEX
  8
0
  5
2F9
 10
-6.10987
 20
0.162466
 30
0.000000
  70
    32
  0
VERTEX
  8
0
  5
2FA
 10
-6.17348
 20
0.103450
 30
0.000000
  70
    32
  0
VERTEX
  8
0
  5
2FB
 10
-6.22312
 20
0.0438554
 30
0.000000
  70
    32
  0
VERTEX
  8
0
  5
2FC
 10
-6.25866
 20
-0.0161751
 30
0.000000
  70
    32
  0
VERTEX
  8
0
  5
2FD
 10
-6.28002
 20
-0.0764965
 30
0.000000
  70
    32
  0
VERTEX
  8
0
  5
2FE
 10
-6.28715
 20
-0.136964
 30
0.000000
  70
    32
  0
SEQEND
  8
0
  5
2FF
  0
POLYLINE
  5
214
  8
0
 10
-7.0964192212767339
 20
-0.1369636604455877
 30
0.0
 66
     1
 70
     8
  0
VERTEX
  8
0
  5
300
 10
-7.09642
 20
-0.136964
 30
0.000000
  70
    32
  0
VERTEX
  8
0
  5
301
 10
-7.08832
 20
-0.211603
 30
0.000000
  70
    32
  0
VERTEX
  8
0
  5
302
 10
-7.06404
 20
-0.286062
 30
0.000000
  70
    32
  0
VERTEX
  8
0
  5
303
 10
-7.02363
 20
-0.360162
 30
0.000000
  70
    32
  0
VERTEX
  8
0
  5
304
 10
-6.96721
 20
-0.433725
 30
0.000000
  70
    32
  0
VERTEX
  8
0
  5
305
 10
-6.89489
 20
-0.506572
 30
0.000000
  70
    32
  0
VERTEX
  8
0
  5
306
 10
-6.80686
 20
-0.578529
 30
0.000000
  70
    32
  0
VERTEX
  8
0
  5
307
 10
-6.70332
 20
-0.649422
 30
0.000000
  70
    32
  0
VERTEX
  8
0
  5
308
 10
-6.58453
 20
-0.719081
 30
0.000000
  70
    32
  0
VERTEX
  8
0
  5
309
 10
-6.45078
 20
-0.787337
 30
0.000000
  70
    32
  0
VERTEX
  8
0
  5
30A
 10
-6.30238
 20
-0.854027
 30
0.000000
  70
    32
  0
VERTEX
  8
0
  5
30B
 10
-6.13969
 20
-0.918989
 30
0.000000
  70
    32
  0
VERTEX
  8
0
  5
30C
 10
-5.96311
 20
-0.982067
 30
0.000000
  70
    32
  0
VERTEX
  8
0
  5
30D
 10
-5.77305
 20
-1.04311
 30
0.000000
  70
    32
  0
VERTEX
  8
0
  5
30E
 10
-5.56999
 20
-1.10197
 30
0.000000
  70
    32
  0
VERTEX
  8
0
  5
30F
 10
-5.35440
 20
-1.15850
 30
0.000000
  70
    32
  0
VERTEX
  8
0
  5
310
 10
-5.12681
 20
-1.21258
 30
0.000000
  70
    32
  0
VERTEX
  8
0
  5
311
 10
-4.88776
 20
-1.26406
 30
0.000000
  70
    32
  0
VERTEX
  8
0
  5
312
 10
-4.63783
 20
-1.31283
 30
0.000000
  70
    32
  0
VERTEX
  8
0
  5
313
 10
-4.37763
 20
-1.35876
 30
0.000000
  70
    32
  0
VERTEX
  8
0
  5
314
 10
-4.10777
 20
-1.40175
 30
0.000000
  70
    32
  0
VERTEX
  8
0
  5
315
 10
-3.82892
 20
-1.44169
 30
0.000000
  70
    32
  0
VERTEX
  8
0
  5
316
 10
-3.54173
 20
-1.47849
 30
0.000000
  70
    32
  0
VERTEX
  8
0
  5
317
 10
-3.24691
 20
-1.51206
 30
0.000000
  70
    32
  0
VERTEX
  8
0
  5
318
 10
-2.94517
 20
-1.54232
 30
0.000000
  70
    32
  0
VERTEX
  8
0
  5
319
 10
-2.63722
 20
-1.56919
 30
0.000000
  70
    32
  0
VERTEX
  8
0
  5
31A
 10
-2.32382
 20
-1.59261
 30
0.000000
  70
    32
  0
VERTEX
  8
0
  5
31B
 10
-2.00571
 20
-1.61252
 30
0.000000
  70
    32
  0
VERTEX
  8
0
  5
31C
 10
-1.68366
 20
-1.62888
 30
0.000000
  70
    32
  0
VERTEX
  8
0
  5
31D
 10
-1.35846
 20
-1.64165
 30
0.000000
  70
    32
  0
VERTEX
  8
0
  5
31E
 10
-1.03088
 20
-1.65078
 30
0.000000
  70
    32
  0
VERTEX
  8
0
  5
31F
 10
-0.701709
 20
-1.65628
 30
0.000000
  70
    32
  0
VERTEX
  8
0
  5
320
 10
-0.371745
 20
-1.65811
 30
0.000000
  70
    32
  0
VERTEX
  8
0
  5
321
 10
-0.0417812
 20
-1.65628
 30
0.000000
  70
    32
  0
VERTEX
  8
0
  5
322
 10
0.287388
 20
-1.65078
 30
0.000000
  70
    32
  0
VERTEX
  8
0
  5
323
 10
0.614969
 20
-1.64165
 30
0.000000
  70
    32
  0
VERTEX
  8
0
  5
324
 10
0.940173
 20
-1.62888
 30
0.000000
  70
    32
  0
VERTEX
  8
0
  5
325
 10
1.26222
 20
-1.61252
 30
0.000000
  70
    32
  0
VERTEX
  8
0
  5
326
 10
1.58032
 20
-1.59261
 30
0.000000
  70
    32
  0
VERTEX
  8
0
  5
327
 10
1.89373
 20
-1.56919
 30
0.000000
  70
    32
  0
VERTEX
  8
0
  5
328
 10
2.20168
 20
-1.54232
 30
0.000000
  70
    32
  0
VERTEX
  8
0
  5
329
 10
2.50342
 20
-1.51206
 30
0.000000
  70
    32
  0
VERTEX
  8
0
  5
32A
 10
2.79824
 20
-1.47849
 30
0.000000
  70
    32
  0
VERTEX
  8
0
  5
32B
 10
3.08543
 20
-1.44169
 30
0.000000
  70
    32
  0
VERTEX
  8
0
  5
32C
 10
3.36428
 20
-1.40175
 30
0.000000
  70
    32
  0
VERTEX
  8
0
  5
32D
 10
3.63414
 20
-1.35876
 30
0.000000
  70
    32
  0
VERTEX
  8
0
  5
32E
 10
3.89434
 20
-1.31283
 30
0.000000
  70
    32
  0
VERTEX
  8
0
  5
32F
 10
4.14427
 20
-1.26406
 30
0.000000
  70
    32
  0
VERTEX
  8
0
  5
330
 10
4.38332
 20
-1.21258
 30
0.000000
  70
    32
  0
VERTEX
  8
0
  5
331
 10
4.61091
 20
-1.15850
 30
0.000000
  70
    32
  0
VERTEX
  8
0
  5
332
 10
4.82650
 20
-1.10197
 30
0.000000
  70
    32
  0
VERTEX
  8
0
  5
333
 10
5.02956
 20
-1.04311
 30
0.000000
  70
    32
  0
VERTEX
  8
0
  5
334
 10
5.21962
 20
-0.982067
 30
0.000000
  70
    32
  0
VERTEX
  8
0
  5
335
 10
5.39620
 20
-0.918989
 30
0.000000
  70
    32
  0
VERTEX
  8
0
  5
336
 10
5.55889
 20
-0.854027
 30
0.000000
  70
    32
  0
VERTEX
  8
0
  5
337
 10
5.70729
 20
-0.787337
 30
0.000000
  70
    32
  0
VERTEX
  8
0
  5
338
 10
5.84104
 20
-0.719081
 30
0.000000
  70
    32
  0
VERTEX
  8
0
  5
339
 10
5.95983
 20
-0.649422
 30
0.000000
  70
    32
  0
VERTEX
  8
0
  5
33A
 10
6.06337
 20
-0.578529
 30
0.000000
  70
    32
  0
VERTEX
  8
0
  5
33B
 10
6.15140
 20
-0.506572
 30
0.000000
  70
    32
  0
VERTEX
  8
0
  5
33C
 10
6.22372
 20
-0.433725
 30
0.000000
  70
    32
  0
VERTEX
  8
0
  5
33D
 10
6.28014
 20
-0.360162
 30
0.000000
  70
    32
  0
VERTEX
  8
0
  5
33E
 10
6.32055
 20
-0.286062
 30
0.000000
  70
    32
  0
VERTEX
  8
0
  5
33F
 10
6.34483
 20
-0.211603
 30
0.000000
  70
    32
  0
VERTEX
  8
0
  5
340
 10
6.35293
 20
-0.136964
 30
0.000000
  70
    32
  0
VERTEX
  8
0
  5
341
 10
6.34483
 20
-0.0623246
 30
0.000000
  70
    32
  0
VERTEX
  8
0
  5
342
 10
6.32055
 20
0.0121347
 30
0.000000
  70
    32
  0
VERTEX
  8
0
  5
343
 10
6.28014
 20
0.0862348
 30
0.000000
  70
    32
  0
VERTEX
  8
0
  5
344
 10
6.22372
 20
0.159797
 30
0.000000
  70
    32
  0
VERTEX
  8
0
  5
345
 10
6.15140
 20
0.232645
 30
0.000000
  70
    32
  0
VERTEX
  8
0
  5
346
 10
6.06337
 20
0.304602
 30
0.000000
  70
    32
  0
VERTEX
  8
0
  5
347
 10
5.95983
 20
0.375495
 30
0.000000
  70
    32
  0
VERTEX
  8
0
  5
348
 10
5.84104
 20
0.445154
 30
0.000000
  70
    32
  0
VERTEX
  8
0
  5
349
 10
5.70729
 20
0.513410
 30
0.000000
  70
    32
  0
VERTEX
  8
0
  5
34A
 10
5.55889
 20
0.580100
 30
0.000000
  70
    32
  0
VERTEX
  8
0
  5
34B
 10
5.39620
 20
0.645062
 30
0.000000
  70
    32
  0
VERTEX
  8
0
  5
34C
 10
5.21962
 20
0.708140
 30
0.000000
  70
    32
  0
VERTEX
  8
0
  5
34D
 10
5.02956
 20
0.769182
 30
0.000000
  70
    32
  0
VERTEX
  8
0
  5
34E
 10
4.82650
 20
0.828041
 30
0.000000
  70
    32
  0
VERTEX
  8
0
  5
34F
 10
4.61091
 20
0.884575
 30
0.000000
  70
    32
  0
VERTEX
  8
0
  5
350
 10
4.38332
 20
0.938649
 30
0.000000
  70
    32
  0
VERTEX
  8
0
  5
351
 10
4.14427
 20
0.990131
 30
0.000000
  70
    32
  0
VERTEX
  8
0
  5
352
 10
3.89434
 20
1.03890
 30
0.000000
  70
    32
  0
VERTEX
  8
0
  5
353
 10
3.63414
 20
1.08483
 30
0.000000
  70
    32
  0
VERTEX
  8
0
  5
354
 10
3.36428
 20
1.12782
 30
0.000000
  70
    32
  0
VERTEX
  8
0
  5
355
 10
3.08543
 20
1.16777
 30
0.000000
  70
    32
  0
VERTEX
  8
0
  5
356
 10
2.79824
 20
1.20457
 30
0.000000
  70
    32
  0
VERTEX
  8
0
  5
357
 10
2.50342
 20
1.23814
 30
0.000000
  70
    32
  0
VERTEX
  8
0
  5
358
 10
2.20168
 20
1.26839
 30
0.000000
  70
    32
  0
VERTEX
  8
0
  5
359
 10
1.89373
 20
1.29526
 30
0.000000
  70
    32
  0
VERTEX
  8
0
  5
35A
 10
1.58032
 20
1.31868
 30
0.000000
  70
    32
  0
VERTEX
  8
0
  5
35B
 10
1.26222
 20
1.33860
 30
0.000000
  70
    32
  0
VERTEX
  8
0
  5
35C
 10
0.940173
 20
1.35495
 30
0.000000
  70
    32
  0
VERTEX
  8
0
  5
35D
 10
0.614969
 20
1.36772
 30
0.000000
  70
    32
  0
VERTEX
  8
0
  5
35E
 10
0.287388
 20
1.37686
 30
0.000000
  70
    32
  0
VERTEX
  8
0
  5
35F
 10
-0.0417812
 20
1.38235
 30
0.000000
  70
    32
  0
VERTEX
  8
0
  5
360
 10
-0.371745
 20
1.38418
 30
0.000000
  70
    32
  0
VERTEX
  8
0
  5
361
 10
-0.701709
 20
1.38235
 30
0.000000
  70
    32
  0
VERTEX
  8
0
  5
362
 10
-1.03088
 20
1.37686
 30
0.000000
  70
    32
  0
VERTEX
  8
0
  5
363
 10
-1.35846
 20
1.36772
 30
0.000000
  70
    32
  0
VERTEX
  8
0
  5
364
 10
-1.68366
 20
1.35495
 30
0.000000
  70
    32
  0
VERTEX
  8
0
  5
365
 10
-2.00571
 20
1.33860
 30
0.000000
  70
    32
  0
VERTEX
  8
0
  5
366
 10
-2.32382
 20
1.31868
 30
0.000000
  70
    32
  0
VERTEX
  8
0
  5
367
 10
-2.63722
 20
1.29526
 30
0.000000
  70
    32
  0
VERTEX
  8
0
  5
368
 10
-2.94517
 20
1.26839
 30
0.000000
  70
    32
  0
VERTEX
  8
0
  5
369
 10
-3.24691
 20
1.23814
 30
0.000000
  70
    32
  0
VERTEX
  8
0
  5
36A
 10
-3.54173
 20
1.20457
 30
0.000000
  70
    32
  0
VERTEX
  8
0
  5
36B
 10
-3.82892
 20
1.16777
 30
0.000000
  70
    32
  0
VERTEX
  8
0
  5
36C
 10
-4.10777
 20
1.12782
 30
0.000000
  70
    32
  0
VERTEX
  8
0
  5
36D
 10
-4.37763
 20
1.08483
 30
0.000000
  70
    32
  0
VERTEX
  8
0
  5
36E
 10
-4.63783
 20
1.03890
 30
0.000000
  70
    32
  0
VERTEX
  8
0
  5
36F
 10
-4.88776
 20
0.990131
 30
0.000000
  70
    32
  0
VERTEX
  8
0
  5
370
 10
-5.12681
 20
0.938649
 30
0.000000
  70
    32
  0
VERTEX
  8
0
  5
371
 10
-5.35440
 20
0.884575
 30
0.000000
  70
    32
  0
VERTEX
  8
0
  5
372
 10
-5.56999
 20
0.828041
 30
0.000000
  70
    32
  0
VERTEX
  8
0
  5
373
 10
-5.77305
 20
0.769182
 30
0.000000
  70
    32
  0
VERTEX
  8
0
  5
374
 10
-5.96311
 20
0.708140
 30
0.000000
  70
    32
  0
VERTEX
  8
0
  5
375
 10
-6.13969
 20
0.645062
 30
0.000000
  70
    32
  0
VERTEX
  8
0
  5
376
 10
-6.30238
 20
0.580100
 30
0.000000
  70
    32
  0
VERTEX
  8
0
  5
377
 10
-6.45078
 20
0.513410
 30
0.000000
  70
    32
  0
VERTEX
  8
0
  5
378
 10
-6.58453
 20
0.445154
 30
0.000000
  70
    32
  0
VERTEX
  8
0
  5
379
 10
-6.70332
 20
0.375495
 30
0.000000
  70
    32
  0
VERTEX
  8
0
  5
37A
 10
-6.80686
 20
0.304602
 30
0.000000
  70
    32
  0
VERTEX
  8
0
  5
37B
 10
-6.89489
 20
0.232645
 30
0.000000
  70
    32
  0
VERTEX
  8
0
  5
37C
 10
-6.96721
 20
0.159797
 30
0.000000
  70
    32
  0
VERTEX
  8
0
  5
37D
 10
-7.02363
 20
0.0862348
 30
0.000000
  70
    32
  0
VERTEX
  8
0
  5
37E
 10
-7.06404
 20
0.0121347
 30
0.000000
  70
    32
  0
VERTEX
  8
0
  5
37F
 10
-7.08832
 20
-0.0623246
 30
0.000000
  70
    32
  0
VERTEX
  8
0
  5
380
 10
-7.09642
 20
-0.136964
 30
0.000000
  70
    32
  0
SEQEND
  8
0
  5
381
  0
ARC
  5
215
  8
0
 10
20.3815462406129591
 20
-3.1888462368900479
 30
0.0
 40
27.6469270116085113
 50
173.6623308055748964
 51
192.6159748571242005
  0
ARC
  5
216
  8
0
 10
-3.2903833947806631
 20
-8.9570638195899601
 30
0.0
 40
3.3185134585042348
 50
184.6719554311906961
 51
234.217059523117598
  0
ARC
  5
217
  8
0
 10
-4.7658435524443847
 20
-20.6990127034972105
 30
0.0
 40
9.0617796080759714
 50
92.9409377103391847
 51
145.5339604223902086
  0
ARC
  5
218
  8
0
 10
120.8771906732741996
 20
-16.8403589880347084
 30
0.0
 40
133.2915346148892013
 50
179.6952461809374029
 51
190.0572024214245914
  0
ARC
  5
219
  8
0
 10
-1.7357779928864321
 20
-37.2433916729911729
 30
0.0
 40
9.0962997090066438
 50
198.4172750433316992
 51
253.4228891512960047
  0
ARC
  5
21D
  8
0
 10
-21.1250369481083915
 20
-3.1888462368900479
 30
0.0
 40
27.6469270116085113
 50
347.3840251428757142
 51
6.337669194425108
  0
ARC
  5
21E
  8
0
 10
2.546892687285236
 20
-8.9570638195899601
 30
0.0
 40
3.3185134585042348
 50
305.782940476882402
 51
355.3280445688092755
  0
ARC
  5
21F
  8
0
 10
4.0223528449489594
 20
-20.6990127034972105
 30
0.0
 40
9.0617796080759714
 50
34.4660395776097914
 51
87.0590622896608153
  0
ARC
  5
220
  8
0
 10
-121.620681380769696
 20
-16.8403589880347084
 30
0.0
 40
133.2915346148892013
 50
349.9427975785753233
 51
0.3047538190626084
  0
ARC
  5
221
  8
0
 10
0.9922872853910059
 20
-37.2433916729911729
 30
0.0
 40
9.0962997090066438
 50
286.5771108487040237
 51
341.5827249566683008
  0
ARC
  5
223
  8
0
 10
-0.3717453537477148
 20
-34.7636407501263207
 30
0.0
 40
11.8773069996986695
 50
250.5279879659063909
 51
289.4720120340937228
  0
ARC
  5
224
  8
0
 10
-0.3717453537477126
 20
-2.157844538451545
 30
0.0
 40
10.6628024983944201
 50
242.8900936403856861
 51
297.1099063596143992
  0
ARC
  5
226
  8
0
 10
-11.4124725956567108
 20
-16.1367092489782102
 30
0.0
 40
1.0
 50
145.5339604223902086
 51
179.6952461809383124
  0
ARC
  5
227
  8
0
 10
10.6689818881612908
 20
-16.1367092489782102
 30
0.0
 40
1.0
 50
0.304753819062531
 51
34.4660395776097985
  0
ARC
  5
228
  8
0
 10
-0.3717453537477269
 20
1.2368714347368279
 30
0.0
 40
21.1337476119795404
 50
235.2679960998463002
 51
304.7320039001536998
  0
ENDSEC
  0
EOF
