<?xml version="1.0" encoding="UTF-8" standalone="no"?>
<svg
   xmlns:osb="http://www.openswatchbook.org/uri/2009/osb"
   xmlns:dc="http://purl.org/dc/elements/1.1/"
   xmlns:cc="http://creativecommons.org/ns#"
   xmlns:rdf="http://www.w3.org/1999/02/22-rdf-syntax-ns#"
   xmlns:svg="http://www.w3.org/2000/svg"
   xmlns="http://www.w3.org/2000/svg"
   xmlns:sodipodi="http://sodipodi.sourceforge.net/DTD/sodipodi-0.dtd"
   xmlns:inkscape="http://www.inkscape.org/namespaces/inkscape"
   width="110"
   height="110"
   viewBox="0 0 110 110"
   version="1.1"
   id="svg3718"
   sodipodi:docname="estus.svg"
   inkscape:version="0.92.1 r15371">
  <metadata
     id="metadata3724">
    <rdf:RDF>
      <cc:Work
         rdf:about="">
        <dc:format>image/svg+xml</dc:format>
        <dc:type
           rdf:resource="http://purl.org/dc/dcmitype/StillImage" />
        <dc:title>Produce by Acme CAD Converter</dc:title>
      </cc:Work>
    </rdf:RDF>
  </metadata>
  <defs
     id="defs3722">
    <linearGradient
       id="linearGradient6109"
       osb:paint="solid">
      <stop
         style="stop-color:#ffcc00;stop-opacity:1;"
         offset="0"
         id="stop6107" />
    </linearGradient>
  </defs>
  <sodipodi:namedview
     pagecolor="#ffffff"
     bordercolor="#666666"
     borderopacity="1"
     objecttolerance="10"
     gridtolerance="10"
     guidetolerance="10"
     inkscape:pageopacity="0"
     inkscape:pageshadow="2"
     inkscape:window-width="1920"
     inkscape:window-height="1017"
     id="namedview3720"
     showgrid="false"
     inkscape:zoom="3.9220856"
     inkscape:cx="-14.452058"
     inkscape:cy="59.951538"
     inkscape:window-x="-4"
     inkscape:window-y="-4"
     inkscape:window-maximized="1"
     inkscape:current-layer="svg3718" />
  <title
     id="title3680">Produce by Acme CAD Converter</title>
  <desc
     id="desc3682">Produce by Acme CAD Converter</desc>
  <path
     style="fill:#ffa000;stroke:#000000;stroke-width:1;stroke-miterlimit:4;stroke-dasharray:none;stroke-opacity:1;fill-opacity:1;opacity:1"
     d="m 27.373525,108.61589 c -3.644861,-0.64908 -8.731683,-2.9466 -12.199639,-5.51008 C 8.7809851,98.380213 4.0860961,90.849695 2.9754101,83.53965 2.3646161,79.519674 2.9730141,74.848098 4.5808141,71.212579 5.8486971,68.34567 16.512683,54.210431 24.818985,44.386644 29.938622,38.331697 38.253614,29.212438 42.35307,25.156573 l 3.067858,-3.035233 0.274474,1.122985 c 1.30852,5.353653 2.648272,9.070086 4.854843,13.467192 5.770409,11.498879 16.283974,21.257756 28.18466,26.161488 2.78021,1.1456 7.07178,2.519645 9.24989,2.961565 l 1.6009,0.324812 -3.00322,3.035755 c -10.01248,10.120964 -26.77424,24.280365 -40.228304,33.982633 -4.729356,3.41053 -6.115448,4.16526 -9.17879,4.9979 -2.094597,0.56932 -7.670631,0.81976 -9.801856,0.44022 z"
     id="path4609"
     inkscape:connector-curvature="0" />
  <path
     style="fill:#ffa000;stroke:#000000;stroke-width:1;stroke-miterlimit:4;stroke-dasharray:none;stroke-opacity:1;opacity:1;fill-opacity:1"
     d="M 87.148795,64.78727 C 83.254865,63.787873 80.310665,62.705352 76.440205,60.849944 70.643044,58.07092 66.147092,54.877724 61.517699,50.251415 54.961164,43.699247 50.683588,36.697102 47.807959,27.809357 c -1.083427,-3.348559 -1.707299,-6.350119 -1.386538,-6.67088 0.421607,-0.421606 4.120054,-0.781815 6.434393,-0.626674 4.777746,0.320273 9.529616,2.163061 13.053287,5.062099 0.892644,0.734408 1.334998,1.355072 1.738241,2.438918 1.71201,4.601582 5.658301,9.639925 9.940213,12.690951 1.58282,1.127821 5.23759,3.066223 6.8238,3.619179 1.6099,0.561214 4.35638,4.921893 5.71292,9.070599 0.81988,2.507413 0.84678,2.723102 0.84788,6.796539 7.7e-4,2.961257 -0.0959,4.376812 -0.32654,4.78062 -0.39007,0.682892 -0.0523,0.70061 -3.49682,-0.183438 z"
     id="path4611"
     inkscape:connector-curvature="0" />
  <path
     style="fill:#ffa000;stroke:#000000;stroke-width:1;stroke-miterlimit:4;stroke-dasharray:none;stroke-opacity:1;opacity:1;fill-opacity:1"
     d="m 83.156195,42.877761 c -5.90246,-2.586427 -10.829872,-7.257103 -13.713882,-12.999346 -1.89213,-3.767347 -2.150273,-5.653857 -1.113267,-8.13576 0.513932,-1.230013 3.614059,-5.809883 5.903506,-8.721348 1.805612,-2.296179 9.749993,-10.4536216 10.180593,-10.4536216 0.11118,0 0.35467,0.5165918 0.5411,1.1479817 0.86178,2.918663 4.22787,7.3870699 9.71398,12.8950599 5.794335,5.817456 9.919535,8.871253 14.008965,10.370552 0.59179,0.216965 0.42909,0.420985 -3.44204,4.316273 -4.22388,4.250229 -6.958295,6.54218 -11.712195,9.81704 -4.54006,3.127545 -6.49453,3.45996 -10.36676,1.763169 z"
     id="path4613"
     inkscape:connector-curvature="0" />
  <path
     style="fill:#ffa000;stroke:#000000;stroke-width:1;stroke-miterlimit:4;stroke-dasharray:none;stroke-opacity:1;opacity:1;fill-opacity:1"
     d="M 105.58745,23.571184 C 100.19934,20.69693 89.942355,10.206752 87.606165,5.1810841 c -0.34223,-0.736219 -0.58107,-1.5393632 -0.53075,-1.7847646 0.23452,-1.1435987 3.53012,0.4348215 7.4674,3.5764866 6.348775,5.0658609 14.150645,14.4413459 14.150645,17.0047849 0,0.795497 -1.1301,0.647628 -3.10601,-0.406407 z"
     id="path4615"
     inkscape:connector-curvature="0" />
</svg>
