<?xml version="1.0" encoding="UTF-8" standalone="no"?>
<!-- Created with Inkscape (http://www.inkscape.org/) -->

<svg
   xmlns:dc="http://purl.org/dc/elements/1.1/"
   xmlns:cc="http://creativecommons.org/ns#"
   xmlns:rdf="http://www.w3.org/1999/02/22-rdf-syntax-ns#"
   xmlns:svg="http://www.w3.org/2000/svg"
   xmlns="http://www.w3.org/2000/svg"
   xmlns:sodipodi="http://sodipodi.sourceforge.net/DTD/sodipodi-0.dtd"
   xmlns:inkscape="http://www.inkscape.org/namespaces/inkscape"
   version="1.1"
   width="42"
   height="50"
   id="svg2"
   xml:space="preserve"
   sodipodi:docname="reddit.svg"
   inkscape:version="0.92.1 r15371"><metadata
     id="metadata89"><rdf:RDF><cc:Work
         rdf:about=""><dc:format>image/svg+xml</dc:format><dc:type
           rdf:resource="http://purl.org/dc/dcmitype/StillImage" /><dc:title></dc:title></cc:Work></rdf:RDF></metadata><sodipodi:namedview
     pagecolor="#ffffff"
     bordercolor="#666666"
     borderopacity="1"
     objecttolerance="10"
     gridtolerance="10"
     guidetolerance="10"
     inkscape:pageopacity="0"
     inkscape:pageshadow="2"
     inkscape:window-width="1677"
     inkscape:window-height="762"
     id="namedview87"
     showgrid="false"
     inkscape:zoom="1.94"
     inkscape:cx="82.923404"
     inkscape:cy="25"
     inkscape:window-x="0"
     inkscape:window-y="0"
     inkscape:window-maximized="0"
     inkscape:current-layer="svg2" /><defs
     id="defs6"><clipPath
       id="clipPath20"><path
         d="M 0,792 H 612 V 0 H 0 Z"
         id="path22"
         inkscape:connector-curvature="0" /></clipPath></defs><g
     id="g24"
     transform="matrix(1.25,0,0,-1.25,26.685125,29.090625)"><path
       inkscape:connector-curvature="0"
       style="fill:#ffffff;fill-opacity:1;fill-rule:nonzero;stroke:none"
       id="path26"
       d="m 0,0 c 2.437,0 4.412,-2.383 4.412,-5.324 0,-2.942 -1.975,-5.324 -4.412,-5.324 -2.437,0 -4.41,2.382 -4.41,5.324 C -4.41,-2.383 -2.437,0 0,0" /></g><g
     id="g28"
     transform="matrix(1.25,0,0,-1.25,26.685125,29.090625)"><path
       inkscape:connector-curvature="0"
       style="fill:none;stroke:#000000;stroke-width:1.10000002;stroke-linecap:butt;stroke-linejoin:miter;stroke-miterlimit:4;stroke-dasharray:none;stroke-opacity:1"
       id="path30"
       d="m 0,0 c 2.437,0 4.412,-2.383 4.412,-5.324 0,-2.942 -1.975,-5.324 -4.412,-5.324 -2.437,0 -4.41,2.382 -4.41,5.324 C -4.41,-2.383 -2.437,0 0,0 Z" /></g><g
     id="g32"
     transform="matrix(1.25,0,0,-1.25,18.007875,49.329875)"><path
       inkscape:connector-curvature="0"
       style="fill:#ffffff;fill-opacity:1;fill-rule:nonzero;stroke:none"
       id="path34"
       d="m 0,0 c 0.063,0.197 0.108,0.401 0.108,0.615 0,1.361 -1.361,2.464 -3.04,2.464 -1.679,0 -3.039,-1.103 -3.039,-2.464 0,-0.214 0.044,-0.418 0.108,-0.615 z" /></g><g
     id="g36"
     transform="matrix(1.25,0,0,-1.25,18.007875,49.329875)"><path
       inkscape:connector-curvature="0"
       style="fill:none;stroke:#000000;stroke-width:1.10000002;stroke-linecap:round;stroke-linejoin:round;stroke-miterlimit:4;stroke-dasharray:none;stroke-opacity:1"
       id="path38"
       d="m 0,0 c 0.063,0.197 0.108,0.401 0.108,0.615 0,1.361 -1.361,2.464 -3.04,2.464 -1.679,0 -3.039,-1.103 -3.039,-2.464 0,-0.214 0.044,-0.418 0.108,-0.615 z" /></g><g
     id="g40"
     transform="matrix(1.25,0,0,-1.25,31.31475,49.329875)"><path
       inkscape:connector-curvature="0"
       style="fill:#ffffff;fill-opacity:1;fill-rule:nonzero;stroke:none"
       id="path42"
       d="m 0,0 c 0.063,0.197 0.107,0.401 0.107,0.615 0,1.361 -1.361,2.464 -3.04,2.464 -1.679,0 -3.039,-1.103 -3.039,-2.464 0,-0.214 0.044,-0.418 0.107,-0.615 z" /></g><g
     id="g44"
     transform="matrix(1.25,0,0,-1.25,31.31475,49.329875)"><path
       inkscape:connector-curvature="0"
       style="fill:none;stroke:#000000;stroke-width:1.10000002;stroke-linecap:round;stroke-linejoin:round;stroke-miterlimit:4;stroke-dasharray:none;stroke-opacity:1"
       id="path46"
       d="m 0,0 c 0.063,0.197 0.107,0.401 0.107,0.615 0,1.361 -1.361,2.464 -3.04,2.464 -1.679,0 -3.039,-1.103 -3.039,-2.464 0,-0.214 0.044,-0.418 0.107,-0.615 z" /></g><g
     id="g48"
     transform="matrix(1.25,0,0,-1.25,10.611,15.01775)"><path
       inkscape:connector-curvature="0"
       style="fill:#ffffff;fill-opacity:1;fill-rule:nonzero;stroke:none"
       id="path50"
       d="m 0,0 c 0,-1.493 -1.21,-2.702 -2.703,-2.702 -1.492,0 -2.701,1.209 -2.701,2.702 0,1.493 1.209,2.703 2.701,2.703 C -1.21,2.703 0,1.493 0,0" /></g><g
     id="g52"
     transform="matrix(1.25,0,0,-1.25,10.611,15.01775)"><path
       inkscape:connector-curvature="0"
       style="fill:none;stroke:#000000;stroke-width:1.10000002;stroke-linecap:butt;stroke-linejoin:miter;stroke-miterlimit:4;stroke-dasharray:none;stroke-opacity:1"
       id="path54"
       d="m 0,0 c 0,-1.493 -1.21,-2.702 -2.703,-2.702 -1.492,0 -2.701,1.209 -2.701,2.702 0,1.493 1.209,2.703 2.701,2.703 C -1.21,2.703 0,1.493 0,0 Z" /></g><g
     id="g56"
     transform="matrix(1.25,0,0,-1.25,38.239125,15.01775)"><path
       inkscape:connector-curvature="0"
       style="fill:#ffffff;fill-opacity:1;fill-rule:nonzero;stroke:none"
       id="path58"
       d="m 0,0 c 0,-1.493 -1.21,-2.702 -2.703,-2.702 -1.492,0 -2.701,1.209 -2.701,2.702 0,1.493 1.209,2.703 2.701,2.703 C -1.21,2.703 0,1.493 0,0" /></g><g
     id="g60"
     transform="matrix(1.25,0,0,-1.25,38.239125,15.01775)"><path
       inkscape:connector-curvature="0"
       style="fill:none;stroke:#000000;stroke-width:1.10000002;stroke-linecap:butt;stroke-linejoin:miter;stroke-miterlimit:4;stroke-dasharray:none;stroke-opacity:1"
       id="path62"
       d="m 0,0 c 0,-1.493 -1.21,-2.702 -2.703,-2.702 -1.492,0 -2.701,1.209 -2.701,2.702 0,1.493 1.209,2.703 2.701,2.703 C -1.21,2.703 0,1.493 0,0 Z" /></g><g
     id="g64"
     transform="matrix(1.25,0,0,-1.25,30.41075,3.162875)"><path
       inkscape:connector-curvature="0"
       style="fill:none;stroke:#000000;stroke-width:1.10000002;stroke-linecap:round;stroke-linejoin:round;stroke-miterlimit:4;stroke-dasharray:none;stroke-opacity:1"
       id="path66"
       d="M 0,0 -5.404,1.272 -7.39,-5.006" /></g><g
     id="g68"
     transform="matrix(1.25,0,0,-1.25,15.311875,29.090625)"><path
       inkscape:connector-curvature="0"
       style="fill:#ffffff;fill-opacity:1;fill-rule:nonzero;stroke:none"
       id="path70"
       d="m 0,0 c 2.437,0 4.411,-2.383 4.411,-5.324 0,-2.942 -1.974,-5.324 -4.411,-5.324 -2.436,0 -4.41,2.382 -4.41,5.324 C -4.41,-2.383 -2.436,0 0,0" /></g><g
     id="g72"
     transform="matrix(1.25,0,0,-1.25,15.311875,29.090625)"><path
       inkscape:connector-curvature="0"
       style="fill:none;stroke:#000000;stroke-width:1.10000002;stroke-linecap:butt;stroke-linejoin:miter;stroke-miterlimit:4;stroke-dasharray:none;stroke-opacity:1"
       id="path74"
       d="m 0,0 c 2.437,0 4.411,-2.383 4.411,-5.324 0,-2.942 -1.974,-5.324 -4.411,-5.324 -2.436,0 -4.41,2.382 -4.41,5.324 C -4.41,-2.383 -2.436,0 0,0 Z" /></g><g
     id="g76"
     transform="matrix(1.25,0,0,-1.25,35.830125,3.709125)"><path
       inkscape:connector-curvature="0"
       style="fill:#ffffff;fill-opacity:1;fill-rule:nonzero;stroke:none"
       id="path78"
       d="m 0,0 c 0,-1.176 -0.954,-2.13 -2.129,-2.13 -1.178,0 -2.131,0.954 -2.131,2.13 0,1.177 0.953,2.13 2.131,2.13 C -0.954,2.13 0,1.177 0,0" /></g><g
     id="g80"
     transform="matrix(1.25,0,0,-1.25,35.830125,3.709125)"><path
       inkscape:connector-curvature="0"
       style="fill:none;stroke:#000000;stroke-width:1.10000002;stroke-linecap:butt;stroke-linejoin:miter;stroke-miterlimit:4;stroke-dasharray:none;stroke-opacity:1"
       id="path82"
       d="m 0,0 c 0,-1.176 -0.954,-2.13 -2.129,-2.13 -1.178,0 -2.131,0.954 -2.131,2.13 0,1.177 0.953,2.13 2.131,2.13 C -0.954,2.13 0,1.177 0,0 Z" /></g><g
     id="g84"
     transform="matrix(1.25,0,0,-1.25,19.10525,49.3335)"><path
       inkscape:connector-curvature="0"
       style="fill:#ffffff;fill-opacity:1;fill-rule:nonzero;stroke:none"
       id="path86"
       d="m 0,0 h 2.99 c 2.656,1.382 4.624,6.34 4.624,12.261 0,6.99 -2.74,12.656 -6.119,12.656 -3.38,0 -6.119,-5.666 -6.119,-12.656 C -4.624,6.34 -2.656,1.382 0,0" /></g><g
     id="g88"
     transform="matrix(1.25,0,0,-1.25,19.10525,49.3335)"><path
       inkscape:connector-curvature="0"
       style="fill:none;stroke:#000000;stroke-width:1.10000002;stroke-linecap:butt;stroke-linejoin:miter;stroke-miterlimit:4;stroke-dasharray:none;stroke-opacity:1"
       id="path90"
       d="m 0,0 h 2.99 c 2.656,1.382 4.624,6.34 4.624,12.261 0,6.99 -2.74,12.656 -6.119,12.656 -3.38,0 -6.119,-5.666 -6.119,-12.656 C -4.624,6.34 -2.656,1.382 0,0 Z" /></g><g
     id="g92"
     transform="matrix(1.25,0,0,-1.25,36.272,19.663125)"><path
       inkscape:connector-curvature="0"
       style="fill:#ffffff;fill-opacity:1;fill-rule:nonzero;stroke:none"
       id="path94"
       d="m 0,0 c 0,-4.411 -5.479,-7.986 -12.239,-7.986 -6.759,0 -12.238,3.575 -12.238,7.986 0,4.411 5.479,7.987 12.238,7.987 C -5.479,7.987 0,4.411 0,0" /></g><g
     id="g96"
     transform="matrix(1.25,0,0,-1.25,36.272,19.663125)"><path
       inkscape:connector-curvature="0"
       style="fill:none;stroke:#000000;stroke-width:1.10000002;stroke-linecap:butt;stroke-linejoin:miter;stroke-miterlimit:4;stroke-dasharray:none;stroke-opacity:1"
       id="path98"
       d="m 0,0 c 0,-4.411 -5.479,-7.986 -12.239,-7.986 -6.759,0 -12.238,3.575 -12.238,7.986 0,4.411 5.479,7.987 12.238,7.987 C -5.479,7.987 0,4.411 0,0 Z" /></g><g
     id="g100"
     transform="matrix(1.25,0,0,-1.25,16.950125,49.329875)"><path
       inkscape:connector-curvature="0"
       style="fill:none;stroke:#000000;stroke-width:1.10000002;stroke-linecap:round;stroke-linejoin:round;stroke-miterlimit:4;stroke-dasharray:none;stroke-opacity:1"
       id="path102"
       d="M 0,0 H 6.596" /></g><g
     id="g156"
     transform="matrix(1.25,0,0,-1.25,17.4505,17.71425)"><path
       inkscape:connector-curvature="0"
       style="fill:#ff4500;fill-opacity:1;fill-rule:nonzero;stroke:none"
       id="path158"
       d="m 0,0 c 0,-0.79 -0.641,-1.43 -1.43,-1.43 -0.791,0 -1.431,0.64 -1.431,1.43 0,0.791 0.64,1.431 1.431,1.431 C -0.641,1.431 0,0.791 0,0" /></g><g
     id="g160"
     transform="matrix(1.25,0,0,-1.25,17.4505,17.71425)"><path
       inkscape:connector-curvature="0"
       style="fill:none;stroke:#ff4500;stroke-width:1.10000002;stroke-linecap:butt;stroke-linejoin:miter;stroke-miterlimit:4;stroke-dasharray:none;stroke-opacity:1"
       id="path162"
       d="m 0,0 c 0,-0.79 -0.641,-1.43 -1.43,-1.43 -0.791,0 -1.431,0.64 -1.431,1.43 0,0.791 0.64,1.431 1.431,1.431 C -0.641,1.431 0,0.791 0,0 Z" /></g><g
     id="g164"
     transform="matrix(1.25,0,0,-1.25,28.22875,17.71425)"><path
       inkscape:connector-curvature="0"
       style="fill:#ff4500;fill-opacity:1;fill-rule:nonzero;stroke:none"
       id="path166"
       d="m 0,0 c 0,-0.79 -0.64,-1.43 -1.43,-1.43 -0.789,0 -1.43,0.64 -1.43,1.43 0,0.791 0.641,1.431 1.43,1.431 C -0.64,1.431 0,0.791 0,0" /></g><g
     id="g168"
     transform="matrix(1.25,0,0,-1.25,28.22875,17.71425)"><path
       inkscape:connector-curvature="0"
       style="fill:none;stroke:#ff4500;stroke-width:1.10000002;stroke-linecap:butt;stroke-linejoin:miter;stroke-miterlimit:4;stroke-dasharray:none;stroke-opacity:1"
       id="path170"
       d="m 0,0 c 0,-0.79 -0.64,-1.43 -1.43,-1.43 -0.789,0 -1.43,0.64 -1.43,1.43 0,0.791 0.641,1.431 1.43,1.431 C -0.64,1.431 0,0.791 0,0 Z" /></g><g
     id="g172"
     transform="matrix(1.25,0,0,-1.25,15.763,24.258375)"><path
       inkscape:connector-curvature="0"
       style="fill:none;stroke:#000000;stroke-width:1.10000002;stroke-linecap:round;stroke-linejoin:miter;stroke-miterlimit:4;stroke-dasharray:none;stroke-opacity:1"
       id="path174"
       d="M 0,0 C 1.066,-1.066 2.786,-1.271 4.212,-1.271" /></g><g
     id="g176"
     transform="matrix(1.25,0,0,-1.25,26.33175,24.258375)"><path
       inkscape:connector-curvature="0"
       style="fill:none;stroke:#000000;stroke-width:1.10000002;stroke-linecap:round;stroke-linejoin:miter;stroke-miterlimit:4;stroke-dasharray:none;stroke-opacity:1"
       id="path178"
       d="M 0,0 C -1.067,-1.066 -2.785,-1.271 -4.212,-1.271" /></g></svg>